<svg xmlns="http://www.w3.org/2000/svg" xmlns:xlink="http://www.w3.org/1999/xlink" width="2200" zoomAndPan="magnify" viewBox="180 680 1100 430" height="860" preserveAspectRatio="xMidYMid meet" version="1.0"><defs><linearGradient id="goldShine" x1="0" y1="0" x2="1" y2="1"><stop offset="0%" stop-color="#7A4E00"/><stop offset="24%" stop-color="#D9A928"/><stop offset="45%" stop-color="#FFF1A8"/><stop offset="62%" stop-color="#D4A017"/><stop offset="82%" stop-color="#F7D76A"/><stop offset="100%" stop-color="#8B5E00"/></linearGradient><g/><clipPath id="73670a2485"><path d="M 304 739 L 547.289062 739 L 547.289062 1083.355469 L 304 1083.355469 Z M 304 739 " clip-rule="nonzero"/></clipPath><clipPath id="f2a643cef1"><path d="M 209 716.605469 L 402 716.605469 L 402 1019 L 209 1019 Z M 209 716.605469 " clip-rule="nonzero"/></clipPath></defs><path stroke-linecap="butt" transform="matrix(0.000000001309, 0.75, -0.75, 0.000000001309, 606.529619, 706.851493)" fill="none" stroke-linejoin="miter" d="M 0.0000926918 2.497826 L 515.073052 2.497826 " stroke="#ffffff" stroke-width="5" stroke-opacity="1" stroke-miterlimit="4"/><path fill="#ffffff" d="M 328.460938 795.59375 C 280.605469 786.878906 242.761719 795.992188 227.675781 822.125 C 216.417969 841.613281 219.636719 867.464844 235.476562 895.085938 C 235.636719 895.367188 235.824219 895.625 236.035156 895.867188 C 236.246094 896.109375 236.480469 896.328125 236.738281 896.527344 C 236.992188 896.722656 237.265625 896.890625 237.550781 897.035156 C 237.839844 897.179688 238.140625 897.292969 238.453125 897.375 C 238.761719 897.460938 239.078125 897.511719 239.398438 897.535156 C 239.722656 897.558594 240.042969 897.546875 240.363281 897.507812 C 240.679688 897.46875 240.992188 897.394531 241.296875 897.292969 C 241.605469 897.191406 241.898438 897.058594 242.175781 896.902344 C 242.457031 896.738281 242.714844 896.554688 242.957031 896.339844 C 243.199219 896.128906 243.421875 895.894531 243.617188 895.640625 C 243.8125 895.382812 243.984375 895.113281 244.125 894.824219 C 244.269531 894.535156 244.382812 894.234375 244.464844 893.925781 C 244.550781 893.613281 244.605469 893.296875 244.625 892.976562 C 244.648438 892.65625 244.640625 892.335938 244.597656 892.015625 C 244.558594 891.695312 244.484375 891.382812 244.382812 891.078125 C 244.28125 890.773438 244.148438 890.480469 243.992188 890.199219 C 229.722656 865.304688 226.949219 843.003906 236.171875 827.023438 C 248.761719 805.320312 282.457031 797.183594 326.703125 805.242188 C 327.023438 805.296875 327.339844 805.324219 327.664062 805.316406 C 327.984375 805.3125 328.304688 805.273438 328.617188 805.207031 C 328.933594 805.136719 329.238281 805.039062 329.53125 804.910156 C 329.828125 804.78125 330.105469 804.628906 330.371094 804.445312 C 330.636719 804.261719 330.882812 804.054688 331.105469 803.824219 C 331.328125 803.589844 331.527344 803.339844 331.703125 803.070312 C 331.878906 802.800781 332.023438 802.515625 332.144531 802.214844 C 332.261719 801.917969 332.351562 801.609375 332.410156 801.292969 C 332.46875 800.976562 332.492188 800.65625 332.488281 800.335938 C 332.480469 800.011719 332.441406 799.695312 332.375 799.378906 C 332.304688 799.066406 332.207031 798.761719 332.078125 798.464844 C 331.953125 798.171875 331.796875 797.890625 331.613281 797.625 C 331.429688 797.363281 331.222656 797.117188 330.992188 796.894531 C 330.761719 796.667969 330.507812 796.46875 330.238281 796.292969 C 329.96875 796.121094 329.683594 795.972656 329.386719 795.855469 C 329.085938 795.734375 328.777344 795.644531 328.460938 795.585938 Z M 260.363281 928.609375 C 279.71875 949.875 304.855469 969.824219 333.53125 986.378906 C 403.015625 1026.464844 476.921875 1037.222656 513.300781 1012.386719 C 513.566406 1012.207031 513.8125 1012 514.039062 1011.769531 C 514.261719 1011.539062 514.464844 1011.289062 514.640625 1011.019531 C 514.816406 1010.75 514.960938 1010.464844 515.082031 1010.167969 C 515.203125 1009.867188 515.292969 1009.558594 515.351562 1009.242188 C 515.414062 1008.925781 515.441406 1008.605469 515.4375 1008.285156 C 515.433594 1007.964844 515.402344 1007.644531 515.335938 1007.328125 C 515.269531 1007.015625 515.175781 1006.707031 515.046875 1006.410156 C 514.921875 1006.113281 514.769531 1005.832031 514.589844 1005.566406 C 514.40625 1005.300781 514.199219 1005.054688 513.96875 1004.832031 C 513.738281 1004.605469 513.488281 1004.40625 513.21875 1004.230469 C 512.949219 1004.054688 512.664062 1003.90625 512.367188 1003.785156 C 512.066406 1003.664062 511.761719 1003.574219 511.445312 1003.515625 C 511.128906 1003.457031 510.808594 1003.425781 510.484375 1003.429688 C 510.164062 1003.433594 509.84375 1003.46875 509.53125 1003.53125 C 509.214844 1003.597656 508.910156 1003.695312 508.613281 1003.820312 C 508.316406 1003.945312 508.035156 1004.097656 507.769531 1004.277344 C 475.167969 1026.503906 404.957031 1016.332031 338.378906 977.925781 C 310.566406 961.867188 286.21875 942.550781 267.5625 922.050781 C 267.34375 921.8125 267.105469 921.597656 266.847656 921.410156 C 266.585938 921.21875 266.3125 921.054688 266.019531 920.917969 C 265.726562 920.78125 265.425781 920.671875 265.113281 920.59375 C 264.800781 920.519531 264.484375 920.472656 264.160156 920.457031 C 263.839844 920.441406 263.519531 920.457031 263.199219 920.503906 C 262.882812 920.554688 262.570312 920.632812 262.269531 920.742188 C 261.964844 920.847656 261.675781 920.988281 261.398438 921.152344 C 261.121094 921.316406 260.863281 921.507812 260.625 921.726562 C 260.386719 921.941406 260.175781 922.179688 259.984375 922.441406 C 259.792969 922.699219 259.628906 922.976562 259.492188 923.265625 C 259.355469 923.558594 259.246094 923.859375 259.171875 924.175781 C 259.09375 924.488281 259.046875 924.804688 259.03125 925.125 C 259.015625 925.449219 259.03125 925.769531 259.082031 926.085938 C 259.128906 926.40625 259.207031 926.714844 259.316406 927.019531 C 259.425781 927.324219 259.5625 927.613281 259.726562 927.886719 C 259.894531 928.164062 260.082031 928.421875 260.300781 928.660156 Z M 501.730469 922.699219 C 533.066406 885.671875 544.007812 848.441406 528.957031 822.382812 C 517.886719 803.199219 494.472656 793.070312 463.355469 792.667969 C 463.03125 792.664062 462.714844 792.695312 462.398438 792.753906 C 462.082031 792.8125 461.773438 792.902344 461.472656 793.019531 C 461.175781 793.140625 460.890625 793.289062 460.621094 793.464844 C 460.351562 793.640625 460.101562 793.839844 459.871094 794.0625 C 459.640625 794.289062 459.433594 794.535156 459.25 794.796875 C 459.066406 795.0625 458.910156 795.34375 458.785156 795.640625 C 458.65625 795.933594 458.558594 796.242188 458.492188 796.554688 C 458.421875 796.871094 458.386719 797.1875 458.382812 797.511719 C 458.378906 797.832031 458.40625 798.152344 458.464844 798.46875 C 458.523438 798.785156 458.613281 799.09375 458.734375 799.390625 C 458.855469 799.691406 459 799.976562 459.175781 800.246094 C 459.351562 800.515625 459.550781 800.765625 459.777344 800.996094 C 460 801.226562 460.246094 801.433594 460.511719 801.617188 C 460.777344 801.796875 461.058594 801.953125 461.351562 802.082031 C 461.648438 802.207031 461.953125 802.304688 462.269531 802.375 C 462.582031 802.441406 462.902344 802.476562 463.222656 802.484375 C 491.265625 802.851562 511.378906 811.570312 520.449219 827.289062 C 532.953125 848.945312 523.195312 882.148438 494.226562 916.367188 C 494.019531 916.613281 493.839844 916.878906 493.683594 917.160156 C 493.527344 917.441406 493.402344 917.738281 493.300781 918.042969 C 493.203125 918.351562 493.136719 918.664062 493.101562 918.984375 C 493.066406 919.304688 493.058594 919.625 493.085938 919.945312 C 493.113281 920.265625 493.171875 920.582031 493.257812 920.890625 C 493.347656 921.203125 493.464844 921.5 493.613281 921.785156 C 493.757812 922.074219 493.933594 922.34375 494.132812 922.59375 C 494.332031 922.847656 494.554688 923.078125 494.800781 923.289062 C 495.046875 923.496094 495.3125 923.675781 495.59375 923.832031 C 495.875 923.988281 496.167969 924.113281 496.476562 924.210938 C 496.78125 924.3125 497.097656 924.378906 497.417969 924.414062 C 497.734375 924.449219 498.058594 924.457031 498.378906 924.429688 C 498.699219 924.402344 499.015625 924.34375 499.324219 924.257812 C 499.632812 924.167969 499.933594 924.050781 500.21875 923.902344 C 500.503906 923.757812 500.773438 923.582031 501.027344 923.382812 C 501.28125 923.183594 501.511719 922.960938 501.71875 922.714844 Z M 421.191406 797.21875 C 392.863281 803.285156 362.695312 815.160156 333.730469 831.878906 C 262.0625 873.253906 215.308594 934.332031 221.792969 978.511719 C 221.839844 978.828125 221.917969 979.140625 222.027344 979.441406 C 222.136719 979.746094 222.273438 980.035156 222.4375 980.3125 C 222.605469 980.585938 222.792969 980.84375 223.011719 981.085938 C 223.226562 981.324219 223.464844 981.539062 223.722656 981.730469 C 223.980469 981.921875 224.253906 982.089844 224.546875 982.226562 C 224.835938 982.363281 225.136719 982.472656 225.449219 982.550781 C 225.761719 982.632812 226.078125 982.679688 226.402344 982.695312 C 226.722656 982.714844 227.042969 982.699219 227.359375 982.652344 C 227.679688 982.605469 227.988281 982.527344 228.292969 982.417969 C 228.597656 982.308594 228.886719 982.171875 229.164062 982.007812 C 229.4375 981.84375 229.695312 981.652344 229.933594 981.4375 C 230.171875 981.21875 230.390625 980.984375 230.582031 980.722656 C 230.773438 980.464844 230.9375 980.191406 231.078125 979.902344 C 231.214844 979.609375 231.324219 979.308594 231.402344 978.996094 C 231.480469 978.683594 231.53125 978.367188 231.546875 978.046875 C 231.5625 977.722656 231.550781 977.402344 231.503906 977.085938 C 225.742188 937.804688 270.058594 879.972656 338.632812 840.316406 C 366.671875 824.09375 395.929688 812.601562 423.238281 806.746094 C 423.554688 806.679688 423.859375 806.582031 424.15625 806.453125 C 424.449219 806.324219 424.730469 806.167969 424.996094 805.984375 C 425.257812 805.800781 425.503906 805.59375 425.726562 805.363281 C 425.953125 805.132812 426.152344 804.882812 426.328125 804.613281 C 426.5 804.339844 426.648438 804.058594 426.769531 803.757812 C 426.886719 803.457031 426.976562 803.152344 427.035156 802.835938 C 427.09375 802.519531 427.121094 802.199219 427.117188 801.875 C 427.113281 801.554688 427.078125 801.234375 427.011719 800.921875 C 426.941406 800.605469 426.84375 800.300781 426.714844 800.007812 C 426.585938 799.710938 426.433594 799.429688 426.25 799.167969 C 426.066406 798.902344 425.859375 798.65625 425.628906 798.433594 C 425.398438 798.207031 425.144531 798.007812 424.875 797.835938 C 424.605469 797.660156 424.320312 797.511719 424.023438 797.394531 C 423.722656 797.273438 423.414062 797.183594 423.097656 797.125 C 422.78125 797.066406 422.460938 797.039062 422.140625 797.042969 C 421.820312 797.046875 421.5 797.082031 421.183594 797.148438 Z M 421.191406 797.21875 " fill-opacity="1" fill-rule="evenodd"/><g clip-path="url(#73670a2485)"><path fill="#ffffff" d="M 305.085938 1009.195312 C 321.46875 1054.945312 348.273438 1083.121094 378.421875 1083.121094 C 400.40625 1083.121094 420.746094 1068.125 436.601562 1041.746094 C 436.765625 1041.46875 436.902344 1041.179688 437.011719 1040.875 C 437.121094 1040.570312 437.199219 1040.261719 437.246094 1039.941406 C 437.292969 1039.625 437.308594 1039.304688 437.292969 1038.984375 C 437.277344 1038.660156 437.230469 1038.34375 437.152344 1038.03125 C 437.074219 1037.71875 436.96875 1037.417969 436.832031 1037.125 C 436.695312 1036.835938 436.53125 1036.558594 436.339844 1036.300781 C 436.148438 1036.039062 435.933594 1035.800781 435.695312 1035.585938 C 435.457031 1035.367188 435.199219 1035.175781 434.925781 1035.007812 C 434.648438 1034.84375 434.359375 1034.707031 434.054688 1034.597656 C 433.753906 1034.492188 433.441406 1034.414062 433.121094 1034.367188 C 432.804688 1034.320312 432.484375 1034.300781 432.164062 1034.316406 C 431.839844 1034.332031 431.523438 1034.378906 431.210938 1034.457031 C 430.898438 1034.535156 430.597656 1034.644531 430.304688 1034.78125 C 430.015625 1034.917969 429.738281 1035.082031 429.480469 1035.273438 C 429.21875 1035.464844 428.980469 1035.679688 428.765625 1035.917969 C 428.546875 1036.152344 428.355469 1036.410156 428.1875 1036.6875 C 413.882812 1060.394531 396.429688 1073.292969 378.421875 1073.292969 C 353.382812 1073.292969 329.476562 1048.113281 314.328125 1005.882812 C 314.21875 1005.578125 314.078125 1005.289062 313.914062 1005.011719 C 313.746094 1004.738281 313.554688 1004.480469 313.339844 1004.242188 C 313.121094 1004.003906 312.882812 1003.789062 312.625 1003.597656 C 312.367188 1003.40625 312.089844 1003.242188 311.800781 1003.105469 C 311.507812 1002.964844 311.207031 1002.859375 310.894531 1002.78125 C 310.582031 1002.703125 310.265625 1002.65625 309.941406 1002.640625 C 309.621094 1002.621094 309.300781 1002.636719 308.984375 1002.683594 C 308.664062 1002.730469 308.351562 1002.808594 308.050781 1002.917969 C 307.746094 1003.027344 307.457031 1003.164062 307.179688 1003.332031 C 306.90625 1003.496094 306.648438 1003.6875 306.410156 1003.90625 C 306.171875 1004.121094 305.957031 1004.359375 305.765625 1004.617188 C 305.574219 1004.878906 305.410156 1005.152344 305.273438 1005.445312 C 305.132812 1005.734375 305.027344 1006.039062 304.949219 1006.351562 C 304.871094 1006.664062 304.824219 1006.980469 304.804688 1007.300781 C 304.789062 1007.621094 304.804688 1007.941406 304.851562 1008.261719 C 304.898438 1008.582031 304.976562 1008.890625 305.085938 1009.195312 Z M 454.746094 1000.246094 C 463.230469 973.136719 467.785156 941.875 467.785156 909.285156 C 467.785156 827.976562 439.324219 757.886719 398.792969 739.894531 C 398.496094 739.765625 398.191406 739.664062 397.878906 739.59375 C 397.566406 739.527344 397.246094 739.488281 396.925781 739.480469 C 396.601562 739.472656 396.28125 739.496094 395.964844 739.550781 C 395.648438 739.605469 395.339844 739.691406 395.039062 739.804688 C 394.738281 739.921875 394.453125 740.066406 394.179688 740.238281 C 393.90625 740.410156 393.652344 740.605469 393.421875 740.828125 C 393.1875 741.050781 392.976562 741.292969 392.789062 741.554688 C 392.605469 741.816406 392.445312 742.097656 392.316406 742.390625 C 392.183594 742.683594 392.085938 742.988281 392.015625 743.304688 C 391.945312 743.617188 391.90625 743.9375 391.898438 744.257812 C 391.890625 744.582031 391.914062 744.898438 391.96875 745.21875 C 392.023438 745.535156 392.109375 745.84375 392.226562 746.144531 C 392.339844 746.445312 392.484375 746.730469 392.65625 747.003906 C 392.828125 747.277344 393.027344 747.527344 393.246094 747.761719 C 393.46875 747.996094 393.710938 748.207031 393.972656 748.390625 C 394.238281 748.578125 394.515625 748.738281 394.808594 748.867188 C 430.964844 764.914062 457.964844 831.441406 457.964844 909.289062 C 457.964844 940.902344 453.558594 971.183594 445.375 997.320312 C 445.277344 997.628906 445.214844 997.941406 445.179688 998.261719 C 445.144531 998.582031 445.144531 998.902344 445.171875 999.222656 C 445.203125 999.542969 445.261719 999.859375 445.351562 1000.167969 C 445.445312 1000.476562 445.5625 1000.773438 445.714844 1001.058594 C 445.863281 1001.34375 446.039062 1001.613281 446.238281 1001.863281 C 446.441406 1002.117188 446.664062 1002.34375 446.914062 1002.550781 C 447.160156 1002.757812 447.425781 1002.9375 447.707031 1003.09375 C 447.988281 1003.25 448.285156 1003.375 448.589844 1003.472656 C 448.898438 1003.566406 449.210938 1003.632812 449.53125 1003.667969 C 449.851562 1003.699219 450.171875 1003.703125 450.492188 1003.671875 C 450.816406 1003.644531 451.128906 1003.585938 451.4375 1003.492188 C 451.746094 1003.402344 452.042969 1003.28125 452.328125 1003.132812 C 452.617188 1002.984375 452.882812 1002.808594 453.132812 1002.605469 C 453.386719 1002.40625 453.613281 1002.179688 453.820312 1001.933594 C 454.027344 1001.6875 454.210938 1001.421875 454.363281 1001.140625 C 454.519531 1000.859375 454.644531 1000.5625 454.742188 1000.257812 Z M 547.179688 995.4375 C 547.179688 982.464844 536.660156 971.945312 523.6875 971.945312 C 510.714844 971.945312 500.140625 982.402344 500.140625 995.4375 C 500.140625 1008.472656 510.65625 1018.929688 523.628906 1018.929688 C 536.605469 1018.929688 547.121094 1008.410156 547.121094 995.4375 Z M 537.363281 995.4375 C 537.363281 996.335938 537.277344 997.222656 537.101562 998.105469 C 536.925781 998.984375 536.667969 999.839844 536.324219 1000.667969 C 535.980469 1001.496094 535.558594 1002.285156 535.058594 1003.03125 C 534.558594 1003.777344 533.992188 1004.46875 533.359375 1005.101562 C 532.722656 1005.738281 532.035156 1006.304688 531.289062 1006.804688 C 530.542969 1007.300781 529.753906 1007.722656 528.925781 1008.066406 C 528.09375 1008.410156 527.242188 1008.671875 526.359375 1008.84375 C 525.480469 1009.019531 524.589844 1009.109375 523.695312 1009.109375 C 522.796875 1009.109375 521.90625 1009.019531 521.027344 1008.84375 C 520.148438 1008.671875 519.292969 1008.410156 518.460938 1008.066406 C 517.632812 1007.722656 516.847656 1007.300781 516.101562 1006.804688 C 515.351562 1006.304688 514.664062 1005.738281 514.027344 1005.101562 C 513.394531 1004.46875 512.828125 1003.777344 512.328125 1003.03125 C 511.828125 1002.285156 511.410156 1001.496094 511.066406 1000.667969 C 510.722656 999.839844 510.460938 998.984375 510.285156 998.105469 C 510.109375 997.222656 510.023438 996.335938 510.023438 995.4375 C 510.023438 994.539062 510.109375 993.652344 510.285156 992.769531 C 510.460938 991.890625 510.722656 991.035156 511.066406 990.207031 C 511.410156 989.378906 511.828125 988.589844 512.328125 987.84375 C 512.828125 987.097656 513.394531 986.40625 514.027344 985.773438 C 514.664062 985.136719 515.351562 984.570312 516.101562 984.070312 C 516.847656 983.574219 517.632812 983.152344 518.460938 982.808594 C 519.292969 982.464844 520.148438 982.207031 521.027344 982.03125 C 521.90625 981.855469 522.796875 981.765625 523.695312 981.765625 C 524.589844 981.765625 525.480469 981.855469 526.359375 982.03125 C 527.242188 982.207031 528.09375 982.464844 528.925781 982.808594 C 529.753906 983.152344 530.542969 983.574219 531.289062 984.070312 C 532.035156 984.570312 532.722656 985.136719 533.359375 985.773438 C 533.992188 986.40625 534.558594 987.097656 535.058594 987.84375 C 535.558594 988.589844 535.980469 989.378906 536.324219 990.207031 C 536.667969 991.035156 536.925781 991.890625 537.101562 992.769531 C 537.277344 993.652344 537.363281 994.539062 537.363281 995.4375 Z M 537.363281 995.4375 " fill-opacity="1" fill-rule="evenodd"/></g><g clip-path="url(#f2a643cef1)"><path fill="#ffffff" d="M 232.804688 1018.929688 C 245.777344 1018.929688 256.292969 1008.410156 256.292969 995.4375 C 256.292969 982.464844 245.777344 971.945312 232.804688 971.945312 C 232.035156 971.945312 231.265625 971.984375 230.5 972.058594 C 229.734375 972.136719 228.976562 972.25 228.21875 972.398438 C 227.464844 972.546875 226.71875 972.734375 225.984375 972.957031 C 225.246094 973.183594 224.523438 973.441406 223.8125 973.734375 C 223.101562 974.03125 222.40625 974.359375 221.730469 974.722656 C 221.050781 975.085938 220.390625 975.480469 219.753906 975.90625 C 219.113281 976.335938 218.496094 976.792969 217.902344 977.28125 C 217.304688 977.769531 216.738281 978.285156 216.191406 978.828125 C 215.648438 979.375 215.132812 979.941406 214.644531 980.539062 C 214.15625 981.132812 213.699219 981.75 213.273438 982.390625 C 212.84375 983.027344 212.449219 983.6875 212.085938 984.367188 C 211.722656 985.046875 211.394531 985.738281 211.101562 986.449219 C 210.808594 987.160156 210.546875 987.886719 210.324219 988.621094 C 210.101562 989.359375 209.914062 990.101562 209.765625 990.859375 C 209.617188 991.613281 209.503906 992.371094 209.425781 993.136719 C 209.351562 993.902344 209.316406 994.671875 209.316406 995.441406 C 209.316406 996.210938 209.351562 996.976562 209.429688 997.742188 C 209.503906 998.507812 209.617188 999.269531 209.765625 1000.023438 C 209.917969 1000.777344 210.105469 1001.523438 210.328125 1002.257812 C 210.550781 1002.996094 210.808594 1003.71875 211.105469 1004.429688 C 211.398438 1005.140625 211.726562 1005.835938 212.089844 1006.515625 C 212.453125 1007.191406 212.847656 1007.851562 213.273438 1008.492188 C 213.703125 1009.128906 214.160156 1009.746094 214.648438 1010.34375 C 215.136719 1010.9375 215.652344 1011.507812 216.195312 1012.050781 C 216.742188 1012.59375 217.3125 1013.109375 217.90625 1013.597656 C 218.5 1014.085938 219.117188 1014.542969 219.757812 1014.972656 C 220.398438 1015.398438 221.054688 1015.792969 221.734375 1016.15625 C 222.414062 1016.519531 223.109375 1016.847656 223.820312 1017.140625 C 224.53125 1017.4375 225.253906 1017.695312 225.988281 1017.917969 C 226.726562 1018.140625 227.472656 1018.328125 228.226562 1018.476562 C 228.980469 1018.628906 229.742188 1018.742188 230.507812 1018.816406 C 231.273438 1018.890625 232.039062 1018.929688 232.808594 1018.929688 Z M 232.804688 1009.113281 C 231.90625 1009.113281 231.015625 1009.027344 230.136719 1008.851562 C 229.257812 1008.675781 228.402344 1008.417969 227.570312 1008.074219 C 226.742188 1007.730469 225.957031 1007.308594 225.210938 1006.808594 C 224.460938 1006.308594 223.773438 1005.742188 223.136719 1005.109375 C 222.503906 1004.472656 221.9375 1003.785156 221.4375 1003.039062 C 220.9375 1002.292969 220.519531 1001.503906 220.175781 1000.675781 C 219.832031 999.84375 219.570312 998.992188 219.394531 998.109375 C 219.21875 997.230469 219.132812 996.339844 219.132812 995.445312 C 219.132812 994.546875 219.21875 993.65625 219.394531 992.777344 C 219.570312 991.898438 219.832031 991.042969 220.175781 990.210938 C 220.519531 989.382812 220.9375 988.597656 221.4375 987.847656 C 221.9375 987.101562 222.503906 986.414062 223.136719 985.777344 C 223.773438 985.144531 224.460938 984.578125 225.210938 984.078125 C 225.957031 983.578125 226.742188 983.15625 227.570312 982.8125 C 228.402344 982.472656 229.257812 982.210938 230.136719 982.035156 C 231.015625 981.859375 231.90625 981.773438 232.804688 981.773438 C 233.699219 981.773438 234.589844 981.859375 235.46875 982.035156 C 236.351562 982.210938 237.203125 982.472656 238.035156 982.8125 C 238.863281 983.15625 239.652344 983.578125 240.398438 984.078125 C 241.144531 984.578125 241.832031 985.144531 242.46875 985.777344 C 243.101562 986.414062 243.667969 987.101562 244.167969 987.847656 C 244.667969 988.597656 245.089844 989.382812 245.433594 990.210938 C 245.777344 991.042969 246.035156 991.898438 246.210938 992.777344 C 246.386719 993.65625 246.472656 994.546875 246.472656 995.445312 C 246.472656 996.339844 246.386719 997.230469 246.210938 998.109375 C 246.035156 998.992188 245.777344 999.84375 245.433594 1000.675781 C 245.089844 1001.503906 244.667969 1002.292969 244.167969 1003.039062 C 243.667969 1003.785156 243.101562 1004.472656 242.46875 1005.109375 C 241.832031 1005.742188 241.144531 1006.308594 240.398438 1006.808594 C 239.652344 1007.308594 238.863281 1007.730469 238.035156 1008.074219 C 237.203125 1008.417969 236.351562 1008.675781 235.46875 1008.851562 C 234.589844 1009.027344 233.699219 1009.113281 232.804688 1009.113281 Z M 378.421875 763.796875 C 391.394531 763.796875 401.910156 753.28125 401.910156 740.308594 C 401.910156 727.335938 391.386719 716.875 378.421875 716.875 C 365.453125 716.875 354.929688 727.390625 354.929688 740.363281 C 354.929688 753.339844 365.445312 763.796875 378.421875 763.796875 Z M 378.421875 753.984375 C 377.523438 753.984375 376.632812 753.894531 375.753906 753.722656 C 374.875 753.546875 374.019531 753.285156 373.1875 752.941406 C 372.359375 752.597656 371.574219 752.175781 370.824219 751.679688 C 370.078125 751.179688 369.390625 750.613281 368.753906 749.980469 C 368.121094 749.34375 367.554688 748.652344 367.054688 747.90625 C 366.554688 747.160156 366.132812 746.375 365.789062 745.542969 C 365.449219 744.714844 365.1875 743.859375 365.011719 742.980469 C 364.835938 742.101562 364.75 741.210938 364.75 740.3125 C 364.75 739.414062 364.835938 738.527344 365.011719 737.648438 C 365.1875 736.765625 365.449219 735.910156 365.789062 735.082031 C 366.132812 734.253906 366.554688 733.464844 367.054688 732.71875 C 367.554688 731.972656 368.121094 731.28125 368.753906 730.648438 C 369.390625 730.011719 370.078125 729.445312 370.824219 728.949219 C 371.574219 728.449219 372.359375 728.027344 373.1875 727.683594 C 374.019531 727.339844 374.875 727.082031 375.753906 726.90625 C 376.632812 726.730469 377.523438 726.640625 378.421875 726.640625 C 379.316406 726.640625 380.207031 726.730469 381.085938 726.90625 C 381.96875 727.082031 382.820312 727.339844 383.652344 727.683594 C 384.480469 728.027344 385.269531 728.449219 386.015625 728.949219 C 386.761719 729.445312 387.449219 730.011719 388.085938 730.648438 C 388.71875 731.28125 389.285156 731.972656 389.785156 732.71875 C 390.285156 733.464844 390.707031 734.253906 391.050781 735.082031 C 391.394531 735.910156 391.652344 736.765625 391.828125 737.648438 C 392.003906 738.527344 392.089844 739.414062 392.089844 740.3125 C 392.089844 741.210938 392.003906 742.101562 391.828125 742.980469 C 391.652344 743.859375 391.394531 744.714844 391.050781 745.542969 C 390.707031 746.375 390.285156 747.160156 389.785156 747.90625 C 389.285156 748.652344 388.71875 749.34375 388.085938 749.980469 C 387.449219 750.613281 386.761719 751.179688 386.015625 751.679688 C 385.269531 752.175781 384.480469 752.597656 383.652344 752.941406 C 382.820312 753.285156 381.96875 753.546875 381.085938 753.722656 C 380.207031 753.894531 379.316406 753.984375 378.421875 753.984375 Z M 382.003906 925.890625 C 381.457031 926.011719 380.90625 926.105469 380.351562 926.175781 C 379.796875 926.242188 379.238281 926.28125 378.679688 926.292969 C 378.121094 926.304688 377.5625 926.289062 377.007812 926.246094 C 376.449219 926.207031 375.894531 926.136719 375.34375 926.039062 C 374.796875 925.941406 374.25 925.816406 373.710938 925.664062 C 373.175781 925.515625 372.644531 925.335938 372.125 925.132812 C 371.605469 924.929688 371.09375 924.703125 370.597656 924.449219 C 370.097656 924.195312 369.613281 923.917969 369.144531 923.617188 C 368.671875 923.3125 368.21875 922.992188 367.777344 922.644531 C 367.339844 922.296875 366.917969 921.929688 366.515625 921.542969 C 366.113281 921.15625 365.730469 920.75 365.371094 920.324219 C 365.007812 919.898438 364.667969 919.457031 364.347656 918.996094 C 364.027344 918.539062 363.734375 918.0625 363.460938 917.574219 C 363.1875 917.085938 362.941406 916.585938 362.71875 916.074219 C 362.496094 915.5625 362.300781 915.039062 362.128906 914.507812 C 361.957031 913.976562 361.8125 913.4375 361.695312 912.890625 C 361.578125 912.34375 361.484375 911.792969 361.421875 911.238281 C 361.359375 910.683594 361.320312 910.125 361.3125 909.566406 C 361.304688 909.007812 361.324219 908.449219 361.371094 907.890625 C 361.414062 907.335938 361.488281 906.78125 361.589844 906.230469 C 361.691406 905.683594 361.820312 905.140625 361.972656 904.601562 C 362.128906 904.066406 362.308594 903.535156 362.515625 903.015625 C 362.722656 902.496094 362.953125 901.988281 363.210938 901.492188 C 363.46875 900.996094 363.75 900.515625 364.050781 900.046875 C 364.355469 899.578125 364.683594 899.125 365.03125 898.6875 C 365.382812 898.25 365.75 897.832031 366.140625 897.433594 C 366.53125 897.03125 366.941406 896.652344 367.367188 896.292969 C 367.796875 895.933594 368.242188 895.59375 368.703125 895.28125 C 369.164062 894.964844 369.640625 894.671875 370.128906 894.402344 C 370.617188 894.132812 371.121094 893.890625 371.636719 893.671875 C 372.148438 893.449219 372.671875 893.257812 373.207031 893.089844 C 373.738281 892.921875 374.277344 892.78125 374.828125 892.664062 C 375.371094 892.542969 375.921875 892.449219 376.476562 892.382812 C 377.03125 892.316406 377.589844 892.277344 378.148438 892.261719 C 378.707031 892.25 379.265625 892.265625 379.820312 892.308594 C 380.378906 892.351562 380.933594 892.421875 381.484375 892.519531 C 382.035156 892.617188 382.578125 892.742188 383.117188 892.890625 C 383.652344 893.042969 384.183594 893.21875 384.703125 893.421875 C 385.226562 893.625 385.734375 893.855469 386.230469 894.109375 C 386.730469 894.363281 387.214844 894.640625 387.683594 894.941406 C 388.15625 895.242188 388.609375 895.566406 389.050781 895.914062 C 389.488281 896.257812 389.910156 896.625 390.3125 897.011719 C 390.714844 897.402344 391.097656 897.808594 391.460938 898.234375 C 391.820312 898.660156 392.164062 899.101562 392.480469 899.558594 C 392.800781 900.019531 393.09375 900.492188 393.367188 900.980469 C 393.640625 901.46875 393.886719 901.96875 394.109375 902.484375 C 394.332031 902.996094 394.53125 903.515625 394.699219 904.050781 C 394.871094 904.582031 395.015625 905.121094 395.132812 905.667969 C 395.253906 906.214844 395.34375 906.765625 395.40625 907.320312 C 395.46875 907.875 395.507812 908.433594 395.515625 908.992188 C 395.523438 909.550781 395.503906 910.109375 395.460938 910.664062 C 395.414062 911.222656 395.339844 911.773438 395.238281 912.324219 C 395.136719 912.875 395.007812 913.417969 394.855469 913.957031 C 394.699219 914.492188 394.519531 915.019531 394.3125 915.539062 C 394.105469 916.058594 393.875 916.566406 393.617188 917.0625 C 393.359375 917.558594 393.082031 918.042969 392.777344 918.511719 C 392.472656 918.980469 392.144531 919.433594 391.796875 919.871094 C 391.445312 920.304688 391.078125 920.722656 390.6875 921.125 C 390.296875 921.523438 389.886719 921.902344 389.460938 922.265625 C 389.03125 922.625 388.585938 922.960938 388.125 923.277344 C 387.664062 923.59375 387.191406 923.886719 386.699219 924.15625 C 386.210938 924.421875 385.707031 924.667969 385.195312 924.886719 C 384.679688 925.105469 384.15625 925.300781 383.621094 925.46875 C 383.089844 925.636719 382.550781 925.777344 382.003906 925.890625 Z M 382.003906 925.890625 " fill-opacity="1" fill-rule="evenodd"/></g><g font-family="Arial, Helvetica, sans-serif">
  <text x="658" y="870" fill="#D4A017" font-size="112" font-weight="800" letter-spacing="1">3P</text>
  <text x="833" y="863" fill="#D4A017" font-size="55" font-weight="700" letter-spacing="3">CONSULTING</text>
  <rect x="661" y="908" width="553" height="3" fill="#D4A017" opacity="0.85"/>
  <text x="663" y="975" fill="#ffffff" font-size="29" font-weight="700" letter-spacing="5.5">BUSINESS OPTIMIZATION</text>
  <text x="661" y="1040" fill="url(#goldShine)" font-size="31" font-weight="700" letter-spacing="2.2">PEOPLE • PROCESS • PRODUCT</text>
</g></svg>